<svg xmlns="http://www.w3.org/2000/svg" viewBox="0 0 24 24" id="message-text"><g fill="currentColor" clip-path="url(#a)"><path d="M6 7a1 1 0 0 0 0 2h12a1 1 0 1 0 0-2H6Zm-1 4a1 1 0 0 1 1-1h12a1 1 0 1 1 0 2H6a1 1 0 0 1-1-1Zm1 2a1 1 0 1 0 0 2h8a1 1 0 1 0 0-2H6Z"/><path fill-rule="evenodd" d="M4 3a3 3 0 0 0-3 3v10a3 3 0 0 0 3 3h2v4a1 1 0 0 0 1.707.707L12.414 19H20a3 3 0 0 0 3-3V6a3 3 0 0 0-3-3H4ZM3 6a1 1 0 0 1 1-1h16a1 1 0 0 1 1 1v10a1 1 0 0 1-1 1h-8a1 1 0 0 0-.707.293L8 20.586V19a2 2 0 0 0-2-2H4a1 1 0 0 1-1-1V6Z" clip-rule="evenodd"/></g><defs><clipPath id="a"><path fill="currentColor" d="M0 0h24v24H0z"/></clipPath></defs></svg>
