<svg viewBox="2 2 20 20" id="logo-basecamp" xmlns="http://www.w3.org/2000/svg"><path fill="currentColor" d="M12.488 19.667a10.107 10.107 0 0 1-7.68-3.379.839.839 0 0 1-.166-.85c.525-1.396 1.945-4.68 3.763-4.701.922 0 1.6.725 2.15 1.306.186.2.385.387.597.559.424-.418 1.256-1.813 1.905-3.208a.835.835 0 0 1 1.514.7c-1.966 4.24-3.014 4.24-3.36 4.24-.766 0-1.322-.59-1.86-1.158-.239-.255-.74-.783-.921-.783-.424.07-1.355 1.536-2.021 3.152a8.349 8.349 0 0 0 6.095 2.457c3.296 0 5.763-.897 6.825-2.457-.38-4.194-2.688-9.877-6.84-9.877-3.515 0-6.163 2.458-7.871 7.275a.833.833 0 1 1-1.57-.556C5.014 6.823 8.19 4 12.488 4c5.613 0 8.2 7.17 8.51 11.692a.823.823 0 0 1-.108.473c-1.302 2.274-4.288 3.502-8.402 3.502Z"/></svg>
